<?xml version="1.0" standalone="no"?>
<!DOCTYPE svg PUBLIC "-//W3C//DTD SVG 1.0//EN" "http://www.w3.org/TR/2001/REC-SVG-20010904/DTD/svg10.dtd">
<svg xmlns="http://www.w3.org/2000/svg" xmlns:xlink="http://www.w3.org/1999/xlink" id="body_1" width="307" height="230">

<g transform="matrix(0.45749295 0 0 0.45749295 38.499996 -0)">
	<g>
        <path d="M395.431 251.37C 395.431 252.332 395.413 253.289 395.395 254.246C 395.418 253.291 395.431 252.332 395.431 251.37z" stroke="none" fill="none" />
        <path d="M434.563 175.558C 433.86798 173.878 428.57898 170.98799 414.227 170.98799C 405.32098 170.98799 392.93 172.09698 375.977 175.301C 337.399 182.582 288.399 198.09 238.008 218.965C 187.617 239.84 142 263.52 109.578 285.653C 72.359 311.05103 67.203 324.536 68.328 327.26202C 70.061005 331.46103 87.875 335.11002 128.95801 327.13202C 127.76301 325.20502 126.61301 323.247 125.50901 321.26102C 125.47001 321.191 125.43001 321.12003 125.391014 321.05002C 124.929016 320.216 124.47601 319.376 124.030014 318.532C 123.95301 318.38602 123.876015 318.24002 123.79901 318.09402C 123.38201 317.299 122.973015 316.49902 122.571014 315.69504C 122.473015 315.49805 122.375015 315.30103 122.277016 315.10403C 121.89501 314.33203 121.51901 313.55704 121.15102 312.77704C 121.042015 312.54605 120.93401 312.31305 120.82602 312.08102C 120.47302 311.32303 120.12502 310.56403 119.78502 309.799C 119.67102 309.54202 119.56002 309.284 119.44702 309.027C 119.11802 308.27402 118.79102 307.52002 118.47402 306.76C 118.47102 306.754 118.469025 306.74802 118.46602 306.742C 123.98402 296.452 152.38402 278.077 192.47202 258.375C 208.264 250.613 225.86801 242.646 244.6 234.887C 310.879 207.433 369.01 191.80399 384.596 196.50499C 387.488 203.51799 389.84702 210.80598 391.612 218.32399C 426.293 194.911 436.297 179.738 434.563 175.558z" stroke="none" fill="#B68057" fill-rule="nonzero" />
        <path d="M279.66 110.144C 280.584 110.327995 281.504 110.522995 282.421 110.724C 281.504 110.523 280.584 110.328 279.66 110.144z" stroke="none" fill="#FFD042" fill-rule="nonzero" />
        <path d="M286.315 111.634C 287.356 111.894005 288.393 112.164 289.426 112.44701C 288.394 112.165 287.357 111.894 286.315 111.634z" stroke="none" fill="#FFD042" fill-rule="nonzero" />
        <path d="M283.012 110.853C 283.992 111.073 284.969 111.30299 285.94098 111.543C 284.968 111.304 283.992 111.072 283.012 110.853z" stroke="none" fill="#FFD042" fill-rule="nonzero" />
        <path d="M395.394 254.246C 395.41302 253.289 395.43002 252.33101 395.43002 251.37C 395.43002 250.584 395.40802 249.805 395.39502 249.02199C 395.38303 249.02998 395.372 249.03699 395.36002 249.04399C 395.30902 245.93999 395.148 242.866 394.89603 239.81699C 394.91104 239.80699 394.92502 239.79799 394.94003 239.78798C 394.33603 232.48299 393.18204 225.33598 391.52203 218.38298C 391.55304 218.36198 391.58304 218.34097 391.61404 218.31998C 389.84805 210.80197 387.49005 203.51297 384.59805 196.50098C 369.01205 191.80098 310.88104 207.42998 244.60205 234.88298C 225.87006 242.64198 208.26605 250.60898 192.47406 258.37097C 190.22606 268.47897 189.03107 278.98398 189.03107 289.76898C 189.03107 330.93698 206.33507 368.041 234.03207 394.28497C 208.96907 391.26398 185.89108 381.80298 166.49207 367.61496C 166.48007 367.61795 166.46806 367.62097 166.45607 367.62396C 190.27507 385.06396 219.64706 395.36896 251.43106 395.36896C 323.43906 395.36896 383.10107 342.51395 393.74106 273.48395C 393.67407 273.52493 393.60806 273.56595 393.54007 273.60596C 394.526 267.263 395.231 260.825 395.394 254.246z" stroke="none" fill="#FFD042" fill-rule="nonzero" />
        <path d="M336.357 135.08C 322.445 124.903 306.63998 117.163 289.567 112.485C 306.624 117.167 322.409 124.918 336.31097 135.091C 336.326 135.087 336.341 135.083 336.357 135.08z" stroke="none" fill="#FFD042" fill-rule="nonzero" />
        <path d="M272.829 108.955C 273.64102 109.076004 274.448 109.209 275.256 109.343C 274.448 109.209 273.641 109.076 272.829 108.955z" stroke="none" fill="#FFD042" fill-rule="nonzero" />
        <path d="M269.35 108.479C 270.111 108.573 270.86902 108.67999 271.626 108.786995C 270.869 108.68 270.112 108.573 269.35 108.479z" stroke="none" fill="#FFD042" fill-rule="nonzero" />
        <path d="M265.837 108.085C 266.543 108.155 267.24402 108.238 267.947 108.318C 267.244 108.238 266.542 108.155 265.837 108.085z" stroke="none" fill="#FFD042" fill-rule="nonzero" />
        <path d="M262.283 107.775C 262.929 107.823 263.572 107.884 264.21698 107.941C 263.572 107.885 262.929 107.824 262.283 107.775z" stroke="none" fill="#FFD042" fill-rule="nonzero" />
        <path d="M255.08 107.416C 255.53 107.427 255.978 107.45 256.427 107.466C 255.978 107.45 255.53 107.427 255.08 107.416z" stroke="none" fill="#FFD042" fill-rule="nonzero" />
        <path d="M258.699 107.552C 259.272 107.581 259.841 107.622 260.41202 107.657005C 259.841 107.622 259.271 107.581 258.699 107.552z" stroke="none" fill="#FFD042" fill-rule="nonzero" />
        <path d="M276.269 109.511C 277.13602 109.662 277.99902 109.824005 278.86102 109.99C 277.999 109.825 277.136 109.662 276.269 109.511z" stroke="none" fill="#FFD042" fill-rule="nonzero" />
        <path d="M128.965 327.129C 127.769 325.202 126.615 323.246 125.508995 321.259C 126.614 323.246 127.76399 325.203 128.958 327.13C 128.961 327.13 128.963 327.13 128.965 327.129z" stroke="none" fill="#FFD042" fill-rule="nonzero" />
        <path d="M119.786 309.797C 120.126 310.562 120.47401 311.32098 120.827 312.079C 120.474 311.322 120.126 310.562 119.786 309.797z" stroke="none" fill="#FFD042" fill-rule="nonzero" />
        <path d="M122.572 315.693C 122.974 316.49698 123.382996 317.296 123.799995 318.09198C 123.383 317.297 122.974 316.497 122.572 315.693z" stroke="none" fill="#FFD042" fill-rule="nonzero" />
        <path d="M124.03 318.53C 124.476 319.374 124.929 320.214 125.391 321.048C 124.929 320.214 124.477 319.374 124.03 318.53z" stroke="none" fill="#FFD042" fill-rule="nonzero" />
        <path d="M121.152 312.775C 121.52 313.555 121.896 314.33 122.278 315.102C 121.896 314.33 121.521 313.554 121.152 312.775z" stroke="none" fill="#FFD042" fill-rule="nonzero" />
        <path d="M118.476 306.758C 118.793 307.518 119.118996 308.272 119.449 309.025C 119.119 308.272 118.793 307.517 118.476 306.758z" stroke="none" fill="#FFD042" fill-rule="nonzero" />
        <path d="M189.031 289.77C 189.031 278.985 190.22601 268.47998 192.474 258.37198C 152.386 278.07397 123.986 296.44998 118.468 306.73898C 118.471 306.745 118.473 306.75098 118.476006 306.757C 118.79301 307.517 119.119 308.271 119.449005 309.024C 119.562004 309.28098 119.673004 309.53998 119.787 309.796C 120.127 310.561 120.475006 311.32098 120.828 312.078C 120.936005 312.31 121.043 312.542 121.153 312.77402C 121.520996 313.55402 121.897 314.329 122.279 315.101C 122.377 315.298 122.475 315.49503 122.573 315.69202C 122.975 316.496 123.383995 317.29602 123.800995 318.091C 123.87699 318.237 123.954994 318.383 124.032 318.529C 124.478 319.373 124.931 320.21298 125.393 321.047C 125.432 321.118 125.472 321.188 125.510994 321.258C 126.617 323.245 127.770996 325.201 128.967 327.128C 129.019 327.11798 129.068 327.10898 129.12 327.099C 132.896 333.187 137.11499 338.966 141.724 344.402C 141.783 344.39 141.841 344.37802 141.901 344.36502C 143.871 346.68503 145.866 348.97302 147.976 351.16202C 147.936 351.17102 147.898 351.17902 147.858 351.187C 153.62 357.172 159.89 362.664 166.60901 367.586C 166.57 367.596 166.533 367.604 166.494 367.614C 185.893 381.802 208.97101 391.263 234.034 394.28403C 206.335 368.042 189.031 330.938 189.031 289.77z" stroke="none" fill="#DBB246" fill-rule="nonzero" />
        <path d="M336.311 135.091C 322.409 124.918 306.624 117.16701 289.56702 112.485C 289.52002 112.472 289.47302 112.46 289.42603 112.447C 288.394 112.165 287.35703 111.894 286.31503 111.633995C 286.19003 111.603 286.06503 111.573 285.94104 111.54299C 284.96805 111.30299 283.99203 111.07299 283.01205 110.85299C 282.81506 110.80899 282.61804 110.76799 282.42105 110.72499C 281.50406 110.52299 280.58405 110.32899 279.66006 110.14499C 279.39407 110.09199 279.12708 110.04299 278.86105 109.99199C 277.99905 109.82499 277.13605 109.66299 276.26904 109.51299C 275.93204 109.453995 275.59305 109.40099 275.25604 109.34499C 274.44904 109.20999 273.64105 109.077995 272.82904 108.95699C 272.42905 108.896996 272.02704 108.84499 271.62704 108.788994C 270.87006 108.68299 270.11203 108.576 269.35104 108.480995C 268.88403 108.423 268.41504 108.37399 267.94705 108.31999C 267.24405 108.23999 266.54306 108.15699 265.83707 108.08699C 265.29807 108.03299 264.75708 107.99099 264.21707 107.94299C 263.57306 107.885994 262.93008 107.825 262.28308 107.77699C 261.66107 107.730995 261.03607 107.69699 260.41208 107.659C 259.84106 107.62399 259.27206 107.583 258.69907 107.55399C 257.94406 107.51599 257.18506 107.493996 256.42706 107.467995C 255.97806 107.452995 255.53006 107.42999 255.08006 107.41799C 253.86707 107.38799 252.65106 107.371994 251.43106 107.371994C 179.40106 107.371994 119.72507 160.258 109.11105 229.318C 142.57805 209.11499 180.79805 190.032 219.40005 174.04399C 259.584 157.396 299.477 144.157 336.311 135.091z" stroke="none" fill="#DBB246" fill-rule="nonzero" />
        <path d="M500.446 148.229L500.446 148.225C 491.087 125.63501 456.665 116.99501 400.915 123.19401C 381.031 125.409004 359.286 129.43701 336.357 135.07901C 336.34198 135.08301 336.326 135.087 336.311 135.09001C 299.478 144.156 259.58502 157.39502 219.4 174.04102C 180.79799 190.02902 142.578 209.11201 109.11099 229.31502C 37.917 272.293 -11.737 320.347 2.415 354.518C 9.813 372.362 33.829 381.432 70.563 381.432C 96.591 381.432 129.056 376.833 166.456 367.625C 166.46799 367.622 166.48 367.619 166.49199 367.616C 166.53099 367.606 166.568 367.598 166.607 367.58798C 159.888 362.666 153.618 357.17398 147.85599 351.189C 120.73999 357.159 96.76898 360.3 77.67699 360.3C 52.53299 360.3 35.775986 354.93 31.128986 343.67297C 18.024986 311.92596 106.25699 245.38597 228.19998 195.05197C 306.90097 162.56697 380.417 144.77097 426.177 144.76897C 426.18 144.76897 426.186 144.76897 426.186 144.76897C 451.325 144.76897 468.079 150.13997 472.725 161.39597C 480.898 181.19496 449.648 214.52797 395.39502 249.02197C 395.40802 249.80397 395.43002 250.58397 395.43002 251.36998C 395.43002 252.33199 395.41702 253.29099 395.394 254.24599C 395.23102 260.82498 394.526 267.263 393.54 273.607C 393.608 273.566 393.673 273.525 393.741 273.485C 473.159 225.421 513.054 178.686 500.446 148.229z" stroke="none" fill="#D49E6C" fill-rule="nonzero" />
        <path d="M231.253 202.447C 99.035 257.022 29.891 319.706 38.524 340.621C 41.586998 348.043 55.857998 352.301 77.677 352.301C 95.605 352.301 117.418 349.537 141.722 344.404C 137.112 338.968 132.894 333.188 129.118 327.10098C 129.066 327.111 129.017 327.12 128.965 327.12997C 128.963 327.12997 128.961 327.13098 128.959 327.13098C 87.876 335.10898 70.062 331.46 68.328995 327.261C 67.203995 324.534 72.35999 311.05 109.578995 285.65198C 142.00099 263.51898 187.618 239.83897 238.00899 218.96397C 288.4 198.08897 337.399 182.58098 375.97797 175.29997C 392.93097 172.09697 405.32196 170.98697 414.22797 170.98697C 428.57996 170.98697 433.86896 173.87798 434.56396 175.55698C 436.29697 179.73697 426.29297 194.90997 391.61496 218.32098C 391.58395 218.34198 391.55396 218.36299 391.52295 218.38399C 393.18295 225.33699 394.33694 232.484 394.94095 239.78899C 446.03995 206.53299 470.69095 177.43599 465.33093 164.44899C 462.26794 157.027 447.99994 152.76898 426.18692 152.76898L426.18692 152.76898L426.18692 144.76898L426.17892 152.76898C 379.478 152.771 306.609 171.343 231.253 202.447z" stroke="none" fill="#D49E6C" fill-rule="nonzero" />
        <path d="M141.899 344.367C 141.84 344.38 141.782 344.391 141.722 344.404C 117.417 349.538 95.604996 352.301 77.677 352.301C 55.859 352.301 41.588 348.044 38.524002 340.621C 29.891003 319.706 99.035 257.022 231.253 202.447C 306.609 171.343 379.47803 152.77101 426.178 152.76901L426.178 152.76901L426.186 144.76901C 426.186 144.76901 426.18 144.76901 426.177 144.76901C 380.417 144.77101 306.901 162.56702 228.2 195.05202C 106.257 245.387 18.025 311.927 31.129 343.674C 35.776 354.932 52.532997 360.30103 77.677 360.30103C 96.769 360.30103 120.740005 357.16003 147.856 351.19003C 147.896 351.18103 147.934 351.17303 147.974 351.16504C 145.864 348.975 143.869 346.687 141.899 344.367z" stroke="none" fill="#B68057" fill-rule="nonzero" />
        <path d="M426.186 144.77L426.186 144.769" stroke="none" fill="none" />
        <path d="M465.33 164.449C 470.69098 177.436 446.039 206.533 394.94 239.789C 394.925 239.799 394.911 239.808 394.896 239.81801C 395.148 242.867 395.309 245.942 395.36 249.04501C 395.37198 249.03801 395.383 249.03001 395.395 249.02301C 449.64798 214.529 480.89697 181.19601 472.72498 161.397C 468.07898 150.141 451.32498 144.77 426.18597 144.77L426.18597 144.77L426.18597 152.77C 447.999 152.769 462.267 157.026 465.33 164.449z" stroke="none" fill="#B68057" fill-rule="nonzero" />
	</g>
	<g>
	</g>
	<g>
	</g>
	<g>
	</g>
	<g>
	</g>
	<g>
	</g>
	<g>
	</g>
	<g>
	</g>
	<g>
	</g>
	<g>
	</g>
	<g>
	</g>
	<g>
	</g>
	<g>
	</g>
	<g>
	</g>
	<g>
	</g>
	<g>
	</g>
</g>
</svg>